/* XPM */
static const char *zoomin_xpm[]={
"22 22 185 2",
"ak c None",
"Qt c None",
"#O c #404063",
"#S c #676784",
".C c #87879f",
".B c #9494a5",
".# c #a7a7b8",
"#N c #4c4c62",
"ad c #7b7b95",
".X c #838393",
".q c #9e9eae",
"ae c #74748e",
"#T c #434360",
"#Y c #75758f",
"ac c #46465e",
"aU c #5f3017",
"aO c #613217",
"aH c #6f3b18",
"aA c #7d4618",
"au c #8d5019",
".r c #9494a5",
".h c #a0a0ae",
".g c #ababb5",
"#8 c #46465e",
"#F c #4c4c62",
"#E c #595965",
".7 c #7e7e86",
".M c #848494",
"aZ c #5f3017",
"aN c #6a3818",
"aG c #784218",
"az c #874d19",
"ar c #975819",
"aj c #a66219",
".a c #acacb6",
"#7 c #b66d1a",
"a2 c #4b4b6b",
"ab c #4b4b59",
"#y c #65656b",
"#p c #6f6f73",
"#h c #76767c",
".L c #95979f",
".p c #a5a8ae",
".f c #acaeb6",
"#9 c #5b5e6b",
"#z c #606472",
".Y c #7d818e",
"af c #847678",
"#P c #5b5f6c",
"#Z c #5f636f",
".D c #9096a2",
"am c #985919",
".i c #9da4af",
".A c #a3a5a9",
".b c #a7acb7",
"at c #098d00",
"al c #09c600",
"#R c #5d5d67",
"#2 c #62626c",
"a0 c #683919",
"#W c #68686e",
"aT c #693a1d",
"a1 c #6c6373",
"a. c #6d6f75",
"a# c #707276",
"aa c #707278",
"#U c #71767f",
"aY c #746a79",
"#q c #777b85",
"aX c #7f5432",
".8 c #7f838d",
"#X c #838397",
"#i c #848990",
"#3 c #89899c",
"#M c #8c8d90",
"aV c #97672f",
"aP c #98672f",
".s c #999ea7",
"#G c #99a0a7",
"aI c #9f6c2e",
"#5 c #a0928f",
".N c #a0a8b0",
"#4 c #a1a1b3",
"#1 c #a5a7a9",
".W c #a7abaf",
".j c #a7afb7",
"aB c #a8732d",
"#0 c #a8aeb2",
".c c #a8aeb6",
".d c #a9aeb5",
"ag c #aa6c27",
".e c #adb1b6",
".t c #adb7bf",
".o c #b0b6bc",
".Z c #b0bbc2",
".k c #b1bbc3",
"av c #b27a2d",
"aM c #b7680d",
".9 c #b7c1c7",
".n c #b8c2c8",
".l c #bac4ca",
"#r c #bbc5cb",
".m c #bcc6cc",
"as c #bcea7e",
"aF c #bd6c0e",
".z c #bdc6cb",
".E c #bdc7cd",
"#6 c #be7620",
".K c #bec6ca",
".w c #c0c9ce",
".u c #c0cace",
".J c #c1cacf",
"#. c #c1cbcf",
"#j c #c2ccd0",
"ay c #c3720f",
".v c #c3cdd1",
"#A c #c4ced2",
".x c #c5cfd3",
"#k c #c6d0d4",
".6 c #c7cecf",
"#H c #c7d1d5",
".y c #c8d2d6",
"aq c #c97610",
".F c #cad3d6",
".T c #cbd4d7",
"#s c #ccd5d8",
".R c #cdd6d9",
".U c #ced8da",
"ai c #cf7b10",
"#l c #cfd8db",
".I c #d0dadc",
"#D c #d1d4d5",
"#t c #d2dadc",
".G c #d2dbdc",
"#c c #d2dcde",
"#V c #d3d5d7",
".H c #d4ddde",
".3 c #d5dedf",
"#Q c #d6d7d8",
".V c #d6dfe0",
".O c #d8e1e2",
".4 c #d9e2e3",
".S c #dae3e4",
".5 c #dce4e4",
"#B c #dde5e5",
"#e c #dee6e6",
"#g c #dfe7e7",
"ah c #e09c34",
".2 c #e0e7e8",
"#f c #e0e8e8",
".P c #e1e9e9",
"aS c #e29e32",
"## c #e2e9ea",
".Q c #e4eaea",
"#b c #e5eaeb",
"#o c #e5ebeb",
"#n c #e6ecec",
"#d c #e7eded",
"#v c #e8eeee",
"#x c #e9efef",
"an c #ebcb7c",
"#u c #ebefef",
"aL c #eca636",
"aE c #eca737",
"ap c #eca839",
"#m c #ecf0f0",
"#w c #edf1f1",
".0 c #eef2f2",
"#I c #eff3f3",
"#a c #f1f5f5",
"aW c #f2dc96",
".1 c #f3f5f5",
"#C c #f4f6f6",
"aR c #f6d384",
"aK c #f6d585",
"aD c #f6d687",
"ax c #f6d688",
"ao c #f6d78b",
"#J c #f6f8f8",
"#L c #f7f9f9",
"#K c #fbfbfb",
"aw c #fde89b",
"aC c #fde99e",
"aJ c #fde99f",
"aQ c #fdeba0",
"QtQtQt.#.a.b.c.d.e.f.gQtQtQtQtQtQtQtQtQtQtQt",
"QtQt.h.i.j.k.l.m.m.n.o.p.qQtQtQtQtQtQtQtQtQt",
"Qt.r.s.t.l.u.v.v.w.x.y.z.A.BQtQtQtQtQtQtQtQt",
".C.D.t.E.F.G.H.I.x.J.y.I.K.LQtQtQtQtQtQtQtQt",
".M.N.n.y.O.P.Q.R.S.T.U.I.V.W.XQtQtQtQtQtQtQt",
".Y.Z.E.I.P.0.1.T.2.3.4.4.5.6.7QtQtQtQtQtQtQt",
".8.9#..G###a#b#c#d#e#f.P#f#g#hQtQtQtQtQtQtQt",
"#i.l#j.v#k#l.G#f#m.Q#n#d#d#o#pQtQtQtQtQtQtQt",
"#q#r#j#s.I#t.2#u.Q#v#m.0#w#x#yQtQtQtQtQtQtQt",
"#z.n#A#r.T.3#B.P#d#w#a#C.1#D#EQtQtQtQtQtQtQt",
"#F#G#A#j#H#c#B###x#I#J#K#L#M#NQtQtQtQtQtQtQt",
"#O#P.E.T.F#c#B###x#I#J#K#Q#R#SQtQtQtQtQtQtQt",
"Qt#T#U#A.G#c.S.P#d#w#a#V#W#X#YQtQtQtQtQtQtQt",
"QtQt#T#Z#0#c.S#g.Q#v#1#2#3#4#5#6#7QtQtQtQtQt",
"QtQtQt#O#8#9a.a#aaabacadaeafagahaiajQtQtQtQt",
"akakalalalakakQtQtQtQtQtQtamanaoapaqarQtQtQt",
"akakalasatakakQtQtQtQtQtQtauavawaxapayazQtQt",
"alalalasatatatQtQtQtQtQtQtQtaAaBaCaDaEaFaGQt",
"alasasasasasatQtQtQtQtQtQtQtQtaHaIaJaKaLaMaN",
"atatalasatatatQtQtQtQtQtQtQtQtQtaOaPaQaRaSaT",
"akakalasatakakQtQtQtQtQtQtQtQtQtQtaUaVaWaXaY",
"akakatatatakakQtQtQtQtQtQtQtQtQtQtQtaZa0a1a2"};
